<?xml version="1.0" encoding="UTF-8"?> <svg xmlns="http://www.w3.org/2000/svg" xmlns:xlink="http://www.w3.org/1999/xlink" viewBox="0 0 144.57 42.66"><defs><style>.cls-1{fill:#333;}.cls-2{fill:url(#linear-gradient);}.cls-3{fill:url(#linear-gradient-2);}</style><linearGradient id="linear-gradient" x1="98.44" y1="4.9" x2="117.69" y2="38.24" gradientUnits="userSpaceOnUse"><stop offset="0.38" 
stop-color="#e9500d"></stop><stop offset="0.53" stop-color="#ef7112"></stop><stop offset="0.73" stop-color="#f59619"></stop><stop offset="0.9" stop-color="#faad1d"></stop><stop offset="1" stop-color="#fbb51e"></stop></linearGradient><linearGradient id="linear-gradient-2" x1="121.98" y1="14.06" x2="138.6" y2="42.85" gradientUnits="userSpaceOnUse"><stop offset="0.13" 
stop-color="#37d6ee"></stop><stop offset="0.44" stop-color="#5d8dec"></stop><stop offset="0.79" stop-color="#863eeb"></stop><stop offset="0.96" stop-color="#961fea"></stop></linearGradient></defs><g id="Layer_2" data-name="Layer 2"><g id="Layer_1-2" data-name="Layer 1"><path class="cls-1" 
d="M36.58,0a4.09,4.09,0,0,0-2.86,1.12A3.58,3.58,0,0,0,32.5,3.84a3.57,3.57,0,0,0,1.22,2.72,4.27,4.27,0,0,0,5.73,0A3.62,3.62,0,0,0,40.6,3.84a3.63,3.63,0,0,0-1.15-2.75A4,4,0,0,0,36.58,0Z"></path><path class="cls-1" d="M62.76,34.39a4,4,0,0,0-2.86,1.12,3.66,3.66,0,0,0,0,5.44,4,4,0,0,0,2.86,1.12A4,4,0,0,0,65.63,41a3.86,3.86,0,0,0,0-5.5A4,4,0,0,0,62.76,34.39Z"></path><rect class="cls-1" x="33.57" 
y="13.87" width="6.03" height="28.2"></rect><polygon class="cls-1" points="54.02 0 47.93 0 47.93 13.87 42.96 13.87 42.96 18.9 47.93 18.9 47.93 42.07 54.02 42.07 54.02 18.9 59.87 18.9 59.87 13.87 54.02 13.87 54.02 0"></polygon><path class="cls-1" 
d="M96.15,17.84a15.31,15.31,0,0,0-18.61-1.49V0H71.45V42.07h6.09V40.14a15,15,0,0,0,18.58-1.52,13.81,13.81,0,0,0,4.23-10.44A13.56,13.56,0,0,0,96.15,17.84ZM91.84,34.39a8.21,8.21,0,0,1-6,2.36A8.05,8.05,0,0,1,80,34.36a8.27,8.27,0,0,1-2.42-6.07v-.21A7.9,7.9,0,0,1,80,22.16a8.23,8.23,0,0,1,5.91-2.31,8.34,8.34,0,0,1,6,2.31,7.93,7.93,0,0,1,2.42,6A8.29,8.29,0,0,1,91.84,34.39Z"></path><path class="cls-1" 
d="M14.42,13.88a14.35,14.35,0,0,0-8.33,2.47V0H0V42.07H6.09V40.14a14.17,14.17,0,0,0,8.33,2.52,14.26,14.26,0,0,0,10.25-4A13.81,13.81,0,0,0,28.9,28.18a13.56,13.56,0,0,0-4.2-10.34A14.41,14.41,0,0,0,14.42,13.88Zm6,20.51a8.21,8.21,0,0,1-6,2.36,8.05,8.05,0,0,1-5.91-2.39,8.28,8.28,0,0,1-2.42-6.13v-.09a7.89,7.89,0,0,1,2.42-6,8.23,8.23,0,0,1,5.91-2.31,8.34,8.34,0,0,1,6,2.31,7.93,7.93,0,0,1,2.42,6A8.29,8.29,0,0,1,20.39,34.39Z"></path><path 
class="cls-2" d="M105.2,6.56A3.56,3.56,0,0,1,104,3.84a3.57,3.57,0,0,1,1.21-2.72A4.11,4.11,0,0,1,108.07,0a4,4,0,0,1,2.86,1.09,3.64,3.64,0,0,1,1.16,2.75,3.62,3.62,0,0,1-1.16,2.75,4,4,0,0,1-2.86,1.09A4.07,4.07,0,0,1,105.2,6.56Zm5.86,35.51V13.88h-6V42.07Z"></path><path class="cls-3" 
d="M140.35,38.62a14.28,14.28,0,0,1-10.26,4,14.05,14.05,0,0,1-10.19-4,13.91,13.91,0,0,1-4.17-10.44,13.61,13.61,0,0,1,4.17-10.34,14.23,14.23,0,0,1,10.19-4,14.44,14.44,0,0,1,10.29,4,13.59,13.59,0,0,1,4.19,10.34A13.84,13.84,0,0,1,140.35,38.62Zm-10.26-1.87a8.2,8.2,0,0,0,8.4-8.57,7.9,7.9,0,0,0-2.43-6,8.79,8.79,0,0,0-11.88,0,7.93,7.93,0,0,0-2.42,6,8.32,8.32,0,0,0,2.42,6.18A8.09,8.09,0,0,0,130.09,36.75Z"></path></g></g></svg> 
